<svg width="1104" height="655" viewBox="0 0 1104 655" fill="none" xmlns="http://www.w3.org/2000/svg">
<rect width="1104" height="655" fill="white"/>
<path d="M580.676 241.173C554.863 241.573 529.591 248.629 507.304 261.657C485.016 274.684 466.469 293.244 453.455 315.539C440.441 337.835 433.402 363.112 433.018 388.925C432.634 414.738 438.919 440.213 451.264 462.885L484.198 444.953C474.939 427.948 470.226 408.842 470.514 389.482C470.802 370.123 476.081 351.165 485.841 334.443C495.602 317.722 509.513 303.802 526.228 294.031C542.943 284.26 561.898 278.969 581.257 278.669L580.676 241.173Z" fill="#8F72AB"/>
<path d="M713.896 464.47C726.538 441.935 733.145 416.516 733.076 390.677C733.007 364.838 726.265 339.455 713.502 316.987C700.739 294.52 682.389 275.731 660.23 262.44C638.071 249.15 612.855 241.809 587.024 241.129L586.037 278.616C605.41 279.126 624.323 284.632 640.942 294.6C657.561 304.567 671.324 318.659 680.896 335.51C690.468 352.36 695.525 371.398 695.577 390.777C695.628 410.156 690.673 429.22 681.191 446.121L713.896 464.47Z" fill="#421D66"/>
<path d="M454.154 468.242C467.38 490.363 486.084 508.703 508.46 521.493C530.836 534.282 556.13 541.091 581.903 541.261C607.676 541.432 633.058 534.958 655.602 522.466C678.145 509.973 697.09 491.882 710.608 469.938L678.679 450.27C668.541 466.728 654.333 480.296 637.425 489.665C620.518 499.035 601.481 503.89 582.151 503.762C562.822 503.634 543.851 498.528 527.069 488.935C510.287 479.343 496.259 465.588 486.339 448.998L454.154 468.242Z" fill="#DDBDE8"/>
<path d="M488.523 404V374.909H498.352C500.625 374.909 502.491 375.297 503.949 376.074C505.407 376.841 506.487 377.897 507.188 379.241C507.888 380.586 508.239 382.116 508.239 383.83C508.239 385.544 507.888 387.063 507.188 388.389C506.487 389.715 505.412 390.757 503.963 391.514C502.514 392.262 500.663 392.636 498.409 392.636H490.455V389.455H498.295C499.848 389.455 501.098 389.227 502.045 388.773C503.002 388.318 503.693 387.674 504.119 386.841C504.555 385.998 504.773 384.994 504.773 383.83C504.773 382.665 504.555 381.647 504.119 380.776C503.684 379.904 502.988 379.232 502.031 378.759C501.075 378.276 499.811 378.034 498.239 378.034H492.045V404H488.523ZM502.216 390.932L509.375 404H505.284L498.239 390.932H502.216ZM522.567 404.455C520.465 404.455 518.652 403.991 517.127 403.062C515.612 402.125 514.442 400.818 513.619 399.142C512.804 397.456 512.397 395.496 512.397 393.261C512.397 391.027 512.804 389.057 513.619 387.352C514.442 385.638 515.588 384.303 517.056 383.347C518.533 382.381 520.257 381.898 522.227 381.898C523.363 381.898 524.485 382.087 525.593 382.466C526.701 382.845 527.71 383.46 528.619 384.312C529.528 385.155 530.252 386.273 530.792 387.665C531.332 389.057 531.602 390.771 531.602 392.807V394.227H514.783V391.33H528.192C528.192 390.098 527.946 389 527.454 388.034C526.971 387.068 526.28 386.306 525.38 385.747C524.49 385.188 523.439 384.909 522.227 384.909C520.891 384.909 519.736 385.241 518.761 385.903C517.795 386.557 517.051 387.409 516.531 388.46C516.01 389.511 515.749 390.638 515.749 391.841V393.773C515.749 395.42 516.033 396.817 516.602 397.963C517.179 399.099 517.979 399.966 519.002 400.562C520.025 401.15 521.213 401.443 522.567 401.443C523.448 401.443 524.244 401.32 524.954 401.074C525.674 400.818 526.294 400.439 526.815 399.938C527.335 399.426 527.738 398.792 528.022 398.034L531.261 398.943C530.92 400.042 530.347 401.008 529.542 401.841C528.737 402.665 527.743 403.309 526.559 403.773C525.375 404.227 524.045 404.455 522.567 404.455ZM543.121 404.511C541.739 404.511 540.484 404.251 539.357 403.73C538.23 403.2 537.335 402.438 536.673 401.443C536.01 400.439 535.678 399.227 535.678 397.807C535.678 396.557 535.924 395.544 536.417 394.767C536.909 393.981 537.567 393.366 538.391 392.92C539.215 392.475 540.124 392.144 541.119 391.926C542.122 391.699 543.131 391.519 544.144 391.386C545.47 391.216 546.545 391.088 547.369 391.003C548.202 390.908 548.808 390.752 549.187 390.534C549.575 390.316 549.769 389.937 549.769 389.398V389.284C549.769 387.883 549.386 386.794 548.619 386.017C547.861 385.241 546.71 384.852 545.167 384.852C543.567 384.852 542.312 385.203 541.403 385.903C540.494 386.604 539.854 387.352 539.485 388.148L536.303 387.011C536.871 385.686 537.629 384.653 538.576 383.915C539.532 383.167 540.574 382.646 541.701 382.352C542.837 382.049 543.955 381.898 545.053 381.898C545.754 381.898 546.559 381.983 547.468 382.153C548.387 382.314 549.272 382.651 550.124 383.162C550.986 383.673 551.701 384.445 552.269 385.477C552.837 386.509 553.121 387.892 553.121 389.625V404H549.769V401.045H549.599C549.371 401.519 548.993 402.026 548.462 402.565C547.932 403.105 547.227 403.564 546.346 403.943C545.465 404.322 544.39 404.511 543.121 404.511ZM543.633 401.5C544.959 401.5 546.076 401.24 546.985 400.719C547.904 400.198 548.595 399.526 549.059 398.702C549.532 397.878 549.769 397.011 549.769 396.102V393.034C549.627 393.205 549.315 393.361 548.832 393.503C548.358 393.635 547.809 393.754 547.184 393.858C546.568 393.953 545.967 394.038 545.38 394.114C544.802 394.18 544.334 394.237 543.974 394.284C543.103 394.398 542.288 394.582 541.531 394.838C540.782 395.084 540.176 395.458 539.712 395.96C539.258 396.453 539.031 397.125 539.031 397.977C539.031 399.142 539.461 400.023 540.323 400.619C541.194 401.206 542.298 401.5 543.633 401.5ZM567.479 404.455C565.661 404.455 564.055 403.995 562.663 403.077C561.271 402.149 560.182 400.842 559.396 399.156C558.61 397.461 558.217 395.458 558.217 393.148C558.217 390.856 558.61 388.867 559.396 387.182C560.182 385.496 561.276 384.194 562.678 383.276C564.079 382.357 565.698 381.898 567.536 381.898C568.956 381.898 570.078 382.134 570.902 382.608C571.735 383.072 572.37 383.602 572.805 384.199C573.25 384.786 573.596 385.269 573.842 385.648H574.126V374.909H577.479V404H574.24V400.648H573.842C573.596 401.045 573.246 401.547 572.791 402.153C572.337 402.75 571.688 403.285 570.845 403.759C570.002 404.223 568.88 404.455 567.479 404.455ZM567.933 401.443C569.278 401.443 570.414 401.093 571.342 400.392C572.27 399.682 572.976 398.702 573.459 397.452C573.942 396.192 574.183 394.739 574.183 393.091C574.183 391.462 573.946 390.037 573.473 388.815C573 387.584 572.299 386.628 571.371 385.946C570.443 385.255 569.297 384.909 567.933 384.909C566.513 384.909 565.329 385.274 564.382 386.003C563.445 386.723 562.739 387.703 562.266 388.943C561.802 390.174 561.57 391.557 561.57 393.091C561.57 394.644 561.806 396.055 562.28 397.324C562.763 398.583 563.473 399.587 564.411 400.335C565.357 401.074 566.532 401.443 567.933 401.443ZM592.947 404.455C590.902 404.455 589.141 403.972 587.663 403.006C586.186 402.04 585.05 400.709 584.254 399.014C583.459 397.319 583.061 395.383 583.061 393.205C583.061 390.989 583.468 389.033 584.283 387.338C585.107 385.634 586.252 384.303 587.72 383.347C589.197 382.381 590.921 381.898 592.891 381.898C594.425 381.898 595.807 382.182 597.038 382.75C598.269 383.318 599.278 384.114 600.064 385.136C600.85 386.159 601.338 387.352 601.527 388.716H598.175C597.919 387.722 597.351 386.841 596.47 386.074C595.599 385.297 594.425 384.909 592.947 384.909C591.641 384.909 590.495 385.25 589.51 385.932C588.535 386.604 587.772 387.556 587.223 388.787C586.683 390.009 586.413 391.443 586.413 393.091C586.413 394.777 586.679 396.244 587.209 397.494C587.749 398.744 588.506 399.715 589.482 400.406C590.466 401.098 591.622 401.443 592.947 401.443C593.819 401.443 594.609 401.292 595.32 400.989C596.03 400.686 596.631 400.25 597.124 399.682C597.616 399.114 597.966 398.432 598.175 397.636H601.527C601.338 398.924 600.869 400.084 600.121 401.116C599.382 402.139 598.402 402.954 597.18 403.56C595.968 404.156 594.557 404.455 592.947 404.455ZM608.587 412.182C608.018 412.182 607.512 412.134 607.067 412.04C606.622 411.955 606.314 411.869 606.143 411.784L606.996 408.83C607.81 409.038 608.53 409.114 609.155 409.057C609.78 409 610.334 408.721 610.817 408.219C611.309 407.726 611.759 406.926 612.166 405.818L612.791 404.114L604.723 382.182H608.359L614.382 399.568H614.609L620.632 382.182H624.268L615.007 407.182C614.59 408.309 614.074 409.241 613.459 409.98C612.843 410.728 612.128 411.282 611.314 411.642C610.509 412.002 609.6 412.182 608.587 412.182ZM636.776 404.455C634.73 404.455 632.969 403.972 631.491 403.006C630.014 402.04 628.878 400.709 628.082 399.014C627.287 397.319 626.889 395.383 626.889 393.205C626.889 390.989 627.296 389.033 628.111 387.338C628.935 385.634 630.08 384.303 631.548 383.347C633.026 382.381 634.749 381.898 636.719 381.898C638.253 381.898 639.635 382.182 640.866 382.75C642.098 383.318 643.106 384.114 643.892 385.136C644.678 386.159 645.166 387.352 645.355 388.716H642.003C641.747 387.722 641.179 386.841 640.298 386.074C639.427 385.297 638.253 384.909 636.776 384.909C635.469 384.909 634.323 385.25 633.338 385.932C632.363 386.604 631.6 387.556 631.051 388.787C630.511 390.009 630.241 391.443 630.241 393.091C630.241 394.777 630.507 396.244 631.037 397.494C631.577 398.744 632.334 399.715 633.31 400.406C634.295 401.098 635.45 401.443 636.776 401.443C637.647 401.443 638.438 401.292 639.148 400.989C639.858 400.686 640.459 400.25 640.952 399.682C641.444 399.114 641.795 398.432 642.003 397.636H645.355C645.166 398.924 644.697 400.084 643.949 401.116C643.21 402.139 642.23 402.954 641.009 403.56C639.796 404.156 638.385 404.455 636.776 404.455ZM653.608 374.909V404H650.256V374.909H653.608ZM668.896 404.455C666.793 404.455 664.98 403.991 663.455 403.062C661.94 402.125 660.771 400.818 659.947 399.142C659.132 397.456 658.725 395.496 658.725 393.261C658.725 391.027 659.132 389.057 659.947 387.352C660.771 385.638 661.916 384.303 663.384 383.347C664.862 382.381 666.585 381.898 668.555 381.898C669.691 381.898 670.813 382.087 671.921 382.466C673.029 382.845 674.038 383.46 674.947 384.312C675.856 385.155 676.58 386.273 677.12 387.665C677.66 389.057 677.93 390.771 677.93 392.807V394.227H661.112V391.33H674.521C674.521 390.098 674.274 389 673.782 388.034C673.299 387.068 672.608 386.306 671.708 385.747C670.818 385.188 669.767 384.909 668.555 384.909C667.219 384.909 666.064 385.241 665.089 385.903C664.123 386.557 663.379 387.409 662.859 388.46C662.338 389.511 662.077 390.638 662.077 391.841V393.773C662.077 395.42 662.362 396.817 662.93 397.963C663.507 399.099 664.308 399.966 665.33 400.562C666.353 401.15 667.541 401.443 668.896 401.443C669.776 401.443 670.572 401.32 671.282 401.074C672.002 400.818 672.622 400.439 673.143 399.938C673.664 399.426 674.066 398.792 674.35 398.034L677.589 398.943C677.248 400.042 676.675 401.008 675.87 401.841C675.065 402.665 674.071 403.309 672.887 403.773C671.703 404.227 670.373 404.455 668.896 404.455Z" fill="#7600D3"/>
<line x1="583.217" y1="277.989" x2="584.773" y2="177.996" stroke="#9554BD"/>
<line x1="397.75" y1="497.567" x2="484.284" y2="447.567" stroke="#9554BD"/>
<line x1="764.978" y1="500.407" x2="680.125" y2="447.484" stroke="#9554BD"/>
<path d="M507.523 168V138.909H517.352C519.634 138.909 521.5 139.321 522.949 140.145C524.407 140.959 525.487 142.062 526.188 143.455C526.888 144.847 527.239 146.4 527.239 148.114C527.239 149.828 526.888 151.385 526.188 152.787C525.496 154.188 524.426 155.306 522.977 156.139C521.528 156.963 519.672 157.375 517.409 157.375H510.364V154.25H517.295C518.858 154.25 520.113 153.98 521.06 153.44C522.007 152.901 522.693 152.171 523.119 151.253C523.555 150.325 523.773 149.278 523.773 148.114C523.773 146.949 523.555 145.907 523.119 144.989C522.693 144.07 522.002 143.35 521.045 142.83C520.089 142.299 518.82 142.034 517.239 142.034H511.045V168H507.523ZM538.879 168.511C537.497 168.511 536.242 168.251 535.115 167.73C533.988 167.2 533.093 166.438 532.43 165.443C531.768 164.439 531.436 163.227 531.436 161.807C531.436 160.557 531.682 159.544 532.175 158.767C532.667 157.981 533.325 157.366 534.149 156.92C534.973 156.475 535.882 156.144 536.876 155.926C537.88 155.699 538.889 155.519 539.902 155.386C541.228 155.216 542.303 155.088 543.126 155.003C543.96 154.908 544.566 154.752 544.945 154.534C545.333 154.316 545.527 153.937 545.527 153.398V153.284C545.527 151.883 545.143 150.794 544.376 150.017C543.619 149.241 542.468 148.852 540.925 148.852C539.324 148.852 538.07 149.203 537.161 149.903C536.251 150.604 535.612 151.352 535.243 152.148L532.061 151.011C532.629 149.686 533.387 148.653 534.334 147.915C535.29 147.167 536.332 146.646 537.459 146.352C538.595 146.049 539.713 145.898 540.811 145.898C541.512 145.898 542.317 145.983 543.226 146.153C544.144 146.314 545.03 146.651 545.882 147.162C546.744 147.673 547.459 148.445 548.027 149.477C548.595 150.509 548.879 151.892 548.879 153.625V168H545.527V165.045H545.357C545.129 165.519 544.75 166.026 544.22 166.565C543.69 167.105 542.984 167.564 542.104 167.943C541.223 168.322 540.148 168.511 538.879 168.511ZM539.391 165.5C540.716 165.5 541.834 165.24 542.743 164.719C543.661 164.198 544.353 163.526 544.817 162.702C545.29 161.878 545.527 161.011 545.527 160.102V157.034C545.385 157.205 545.072 157.361 544.589 157.503C544.116 157.635 543.567 157.754 542.942 157.858C542.326 157.953 541.725 158.038 541.138 158.114C540.56 158.18 540.091 158.237 539.732 158.284C538.86 158.398 538.046 158.582 537.288 158.838C536.54 159.084 535.934 159.458 535.47 159.96C535.016 160.453 534.788 161.125 534.788 161.977C534.788 163.142 535.219 164.023 536.081 164.619C536.952 165.206 538.055 165.5 539.391 165.5ZM554.998 168V146.182H558.237V149.477H558.464C558.862 148.398 559.581 147.522 560.623 146.849C561.665 146.177 562.839 145.841 564.146 145.841C564.392 145.841 564.7 145.846 565.069 145.855C565.438 145.865 565.718 145.879 565.907 145.898V149.307C565.793 149.278 565.533 149.236 565.126 149.179C564.728 149.113 564.307 149.08 563.862 149.08C562.801 149.08 561.854 149.302 561.021 149.747C560.197 150.183 559.543 150.789 559.06 151.565C558.587 152.332 558.35 153.208 558.35 154.193V168H554.998ZM580.737 146.182V149.023H569.43V146.182H580.737ZM572.725 140.955H576.077V161.75C576.077 162.697 576.215 163.407 576.489 163.881C576.773 164.345 577.133 164.657 577.569 164.818C578.014 164.97 578.483 165.045 578.975 165.045C579.344 165.045 579.647 165.027 579.884 164.989C580.121 164.941 580.31 164.903 580.452 164.875L581.134 167.886C580.907 167.972 580.59 168.057 580.183 168.142C579.775 168.237 579.259 168.284 578.634 168.284C577.687 168.284 576.759 168.08 575.85 167.673C574.951 167.266 574.202 166.646 573.606 165.812C573.019 164.979 572.725 163.928 572.725 162.659V140.955ZM592.2 168.511C590.817 168.511 589.562 168.251 588.435 167.73C587.308 167.2 586.414 166.438 585.751 165.443C585.088 164.439 584.756 163.227 584.756 161.807C584.756 160.557 585.003 159.544 585.495 158.767C585.987 157.981 586.646 157.366 587.469 156.92C588.293 156.475 589.202 156.144 590.197 155.926C591.201 155.699 592.209 155.519 593.222 155.386C594.548 155.216 595.623 155.088 596.447 155.003C597.28 154.908 597.886 154.752 598.265 154.534C598.653 154.316 598.847 153.937 598.847 153.398V153.284C598.847 151.883 598.464 150.794 597.697 150.017C596.939 149.241 595.789 148.852 594.245 148.852C592.645 148.852 591.39 149.203 590.481 149.903C589.572 150.604 588.933 151.352 588.563 152.148L585.381 151.011C585.95 149.686 586.707 148.653 587.654 147.915C588.611 147.167 589.652 146.646 590.779 146.352C591.915 146.049 593.033 145.898 594.131 145.898C594.832 145.898 595.637 145.983 596.546 146.153C597.465 146.314 598.35 146.651 599.202 147.162C600.064 147.673 600.779 148.445 601.347 149.477C601.915 150.509 602.2 151.892 602.2 153.625V168H598.847V165.045H598.677C598.45 165.519 598.071 166.026 597.54 166.565C597.01 167.105 596.305 167.564 595.424 167.943C594.543 168.322 593.469 168.511 592.2 168.511ZM592.711 165.5C594.037 165.5 595.154 165.24 596.063 164.719C596.982 164.198 597.673 163.526 598.137 162.702C598.611 161.878 598.847 161.011 598.847 160.102V157.034C598.705 157.205 598.393 157.361 597.91 157.503C597.436 157.635 596.887 157.754 596.262 157.858C595.647 157.953 595.045 158.038 594.458 158.114C593.88 158.18 593.412 158.237 593.052 158.284C592.181 158.398 591.366 158.582 590.609 158.838C589.861 159.084 589.254 159.458 588.79 159.96C588.336 160.453 588.109 161.125 588.109 161.977C588.109 163.142 588.54 164.023 589.401 164.619C590.272 165.206 591.376 165.5 592.711 165.5ZM617.125 176.636C615.506 176.636 614.114 176.428 612.949 176.011C611.784 175.604 610.813 175.064 610.037 174.392C609.27 173.729 608.659 173.019 608.205 172.261L610.875 170.386C611.178 170.784 611.562 171.239 612.026 171.75C612.49 172.271 613.124 172.721 613.929 173.099C614.743 173.488 615.809 173.682 617.125 173.682C618.886 173.682 620.34 173.256 621.486 172.403C622.632 171.551 623.205 170.216 623.205 168.398V163.966H622.92C622.674 164.364 622.324 164.856 621.869 165.443C621.424 166.021 620.78 166.537 619.938 166.991C619.104 167.437 617.977 167.659 616.557 167.659C614.795 167.659 613.214 167.242 611.812 166.409C610.42 165.576 609.317 164.364 608.503 162.773C607.698 161.182 607.295 159.25 607.295 156.977C607.295 154.742 607.688 152.796 608.474 151.139C609.26 149.473 610.354 148.185 611.756 147.276C613.157 146.357 614.777 145.898 616.614 145.898C618.034 145.898 619.161 146.134 619.994 146.608C620.837 147.072 621.481 147.602 621.926 148.199C622.381 148.786 622.731 149.269 622.977 149.648H623.318V146.182H626.557V168.625C626.557 170.5 626.131 172.025 625.278 173.199C624.436 174.383 623.299 175.249 621.869 175.798C620.449 176.357 618.867 176.636 617.125 176.636ZM617.011 164.648C618.356 164.648 619.492 164.34 620.42 163.724C621.348 163.109 622.054 162.223 622.537 161.068C623.02 159.913 623.261 158.53 623.261 156.92C623.261 155.348 623.025 153.961 622.551 152.759C622.078 151.556 621.377 150.614 620.449 149.932C619.521 149.25 618.375 148.909 617.011 148.909C615.591 148.909 614.407 149.269 613.46 149.989C612.523 150.708 611.817 151.674 611.344 152.886C610.88 154.098 610.648 155.443 610.648 156.92C610.648 158.436 610.884 159.776 611.358 160.94C611.841 162.096 612.551 163.005 613.489 163.668C614.436 164.321 615.61 164.648 617.011 164.648ZM641.841 168.455C639.739 168.455 637.925 167.991 636.401 167.062C634.885 166.125 633.716 164.818 632.892 163.142C632.078 161.456 631.67 159.496 631.67 157.261C631.67 155.027 632.078 153.057 632.892 151.352C633.716 149.638 634.862 148.303 636.33 147.347C637.807 146.381 639.53 145.898 641.5 145.898C642.636 145.898 643.759 146.087 644.866 146.466C645.974 146.845 646.983 147.46 647.892 148.312C648.801 149.155 649.526 150.273 650.065 151.665C650.605 153.057 650.875 154.771 650.875 156.807V158.227H634.057V155.33H647.466C647.466 154.098 647.22 153 646.727 152.034C646.244 151.068 645.553 150.306 644.653 149.747C643.763 149.188 642.712 148.909 641.5 148.909C640.165 148.909 639.009 149.241 638.034 149.903C637.068 150.557 636.325 151.409 635.804 152.46C635.283 153.511 635.023 154.638 635.023 155.841V157.773C635.023 159.42 635.307 160.817 635.875 161.963C636.453 163.099 637.253 163.966 638.276 164.562C639.298 165.15 640.487 165.443 641.841 165.443C642.722 165.443 643.517 165.32 644.227 165.074C644.947 164.818 645.567 164.439 646.088 163.938C646.609 163.426 647.011 162.792 647.295 162.034L650.534 162.943C650.193 164.042 649.62 165.008 648.815 165.841C648.01 166.665 647.016 167.309 645.832 167.773C644.649 168.227 643.318 168.455 641.841 168.455ZM655.974 168V146.182H659.213V149.477H659.44C659.838 148.398 660.558 147.522 661.599 146.849C662.641 146.177 663.815 145.841 665.122 145.841C665.368 145.841 665.676 145.846 666.045 145.855C666.415 145.865 666.694 145.879 666.884 145.898V149.307C666.77 149.278 666.509 149.236 666.102 149.179C665.705 149.113 665.283 149.08 664.838 149.08C663.777 149.08 662.83 149.302 661.997 149.747C661.173 150.183 660.52 150.789 660.037 151.565C659.563 152.332 659.327 153.208 659.327 154.193V168H655.974Z" fill="#421D66"/>
<path d="M188.523 525V495.909H198.352C200.625 495.909 202.491 496.297 203.949 497.074C205.407 497.841 206.487 498.897 207.188 500.241C207.888 501.586 208.239 503.116 208.239 504.83C208.239 506.544 207.888 508.063 207.188 509.389C206.487 510.715 205.412 511.757 203.963 512.514C202.514 513.262 200.663 513.636 198.409 513.636H190.455V510.455H198.295C199.848 510.455 201.098 510.227 202.045 509.773C203.002 509.318 203.693 508.674 204.119 507.841C204.555 506.998 204.773 505.994 204.773 504.83C204.773 503.665 204.555 502.647 204.119 501.776C203.684 500.904 202.988 500.232 202.031 499.759C201.075 499.276 199.811 499.034 198.239 499.034H192.045V525H188.523ZM202.216 511.932L209.375 525H205.284L198.239 511.932H202.216ZM222.567 525.455C220.465 525.455 218.652 524.991 217.127 524.062C215.612 523.125 214.442 521.818 213.619 520.142C212.804 518.456 212.397 516.496 212.397 514.261C212.397 512.027 212.804 510.057 213.619 508.352C214.442 506.638 215.588 505.303 217.056 504.347C218.533 503.381 220.257 502.898 222.227 502.898C223.363 502.898 224.485 503.087 225.593 503.466C226.701 503.845 227.71 504.46 228.619 505.312C229.528 506.155 230.252 507.273 230.792 508.665C231.332 510.057 231.602 511.771 231.602 513.807V515.227H214.783V512.33H228.192C228.192 511.098 227.946 510 227.454 509.034C226.971 508.068 226.28 507.306 225.38 506.747C224.49 506.188 223.439 505.909 222.227 505.909C220.891 505.909 219.736 506.241 218.761 506.903C217.795 507.557 217.051 508.409 216.531 509.46C216.01 510.511 215.749 511.638 215.749 512.841V514.773C215.749 516.42 216.033 517.817 216.602 518.963C217.179 520.099 217.979 520.966 219.002 521.562C220.025 522.15 221.213 522.443 222.567 522.443C223.448 522.443 224.244 522.32 224.954 522.074C225.674 521.818 226.294 521.439 226.815 520.938C227.335 520.426 227.738 519.792 228.022 519.034L231.261 519.943C230.92 521.042 230.347 522.008 229.542 522.841C228.737 523.665 227.743 524.309 226.559 524.773C225.375 525.227 224.045 525.455 222.567 525.455ZM240.053 511.875V525H236.701V503.182H239.94V506.591H240.224C240.735 505.483 241.512 504.593 242.553 503.92C243.595 503.239 244.94 502.898 246.587 502.898C248.065 502.898 249.357 503.201 250.465 503.807C251.573 504.403 252.435 505.312 253.05 506.534C253.666 507.746 253.974 509.28 253.974 511.136V525H250.621V511.364C250.621 509.65 250.176 508.314 249.286 507.358C248.396 506.392 247.174 505.909 245.621 505.909C244.551 505.909 243.595 506.141 242.752 506.605C241.919 507.069 241.261 507.746 240.778 508.636C240.295 509.527 240.053 510.606 240.053 511.875ZM268.963 525.455C266.918 525.455 265.156 524.972 263.679 524.006C262.202 523.04 261.065 521.709 260.27 520.014C259.474 518.319 259.077 516.383 259.077 514.205C259.077 511.989 259.484 510.033 260.298 508.338C261.122 506.634 262.268 505.303 263.736 504.347C265.213 503.381 266.937 502.898 268.906 502.898C270.44 502.898 271.823 503.182 273.054 503.75C274.285 504.318 275.294 505.114 276.08 506.136C276.866 507.159 277.353 508.352 277.543 509.716H274.19C273.935 508.722 273.366 507.841 272.486 507.074C271.615 506.297 270.44 505.909 268.963 505.909C267.656 505.909 266.51 506.25 265.526 506.932C264.55 507.604 263.788 508.556 263.239 509.787C262.699 511.009 262.429 512.443 262.429 514.091C262.429 515.777 262.694 517.244 263.224 518.494C263.764 519.744 264.522 520.715 265.497 521.406C266.482 522.098 267.637 522.443 268.963 522.443C269.834 522.443 270.625 522.292 271.335 521.989C272.045 521.686 272.647 521.25 273.139 520.682C273.632 520.114 273.982 519.432 274.19 518.636H277.543C277.353 519.924 276.884 521.084 276.136 522.116C275.398 523.139 274.418 523.954 273.196 524.56C271.984 525.156 270.573 525.455 268.963 525.455ZM291.307 525.455C289.337 525.455 287.609 524.986 286.122 524.048C284.645 523.111 283.49 521.799 282.656 520.114C281.832 518.428 281.42 516.458 281.42 514.205C281.42 511.932 281.832 509.948 282.656 508.253C283.49 506.558 284.645 505.241 286.122 504.304C287.609 503.366 289.337 502.898 291.307 502.898C293.277 502.898 295 503.366 296.477 504.304C297.964 505.241 299.119 506.558 299.943 508.253C300.777 509.948 301.193 511.932 301.193 514.205C301.193 516.458 300.777 518.428 299.943 520.114C299.119 521.799 297.964 523.111 296.477 524.048C295 524.986 293.277 525.455 291.307 525.455ZM291.307 522.443C292.803 522.443 294.034 522.06 295 521.293C295.966 520.526 296.681 519.517 297.145 518.267C297.609 517.017 297.841 515.663 297.841 514.205C297.841 512.746 297.609 511.387 297.145 510.128C296.681 508.868 295.966 507.85 295 507.074C294.034 506.297 292.803 505.909 291.307 505.909C289.811 505.909 288.58 506.297 287.614 507.074C286.648 507.85 285.933 508.868 285.469 510.128C285.005 511.387 284.773 512.746 284.773 514.205C284.773 515.663 285.005 517.017 285.469 518.267C285.933 519.517 286.648 520.526 287.614 521.293C288.58 522.06 289.811 522.443 291.307 522.443ZM309.663 511.875V525H306.31V503.182H309.549V506.591H309.833C310.344 505.483 311.121 504.593 312.163 503.92C313.204 503.239 314.549 502.898 316.197 502.898C317.674 502.898 318.967 503.201 320.075 503.807C321.183 504.403 322.044 505.312 322.66 506.534C323.275 507.746 323.583 509.28 323.583 511.136V525H320.231V511.364C320.231 509.65 319.786 508.314 318.896 507.358C318.005 506.392 316.784 505.909 315.231 505.909C314.161 505.909 313.204 506.141 312.362 506.605C311.528 507.069 310.87 507.746 310.387 508.636C309.904 509.527 309.663 510.606 309.663 511.875ZM339.197 503.182V506.023H327.891V503.182H339.197ZM331.186 497.955H334.538V518.75C334.538 519.697 334.676 520.407 334.95 520.881C335.234 521.345 335.594 521.657 336.03 521.818C336.475 521.97 336.944 522.045 337.436 522.045C337.805 522.045 338.108 522.027 338.345 521.989C338.582 521.941 338.771 521.903 338.913 521.875L339.595 524.886C339.368 524.972 339.051 525.057 338.643 525.142C338.236 525.237 337.72 525.284 337.095 525.284C336.148 525.284 335.22 525.08 334.311 524.673C333.411 524.266 332.663 523.646 332.067 522.812C331.48 521.979 331.186 520.928 331.186 519.659V497.955ZM344.24 525V503.182H347.479V506.477H347.706C348.104 505.398 348.823 504.522 349.865 503.849C350.907 503.177 352.081 502.841 353.388 502.841C353.634 502.841 353.942 502.846 354.311 502.855C354.68 502.865 354.96 502.879 355.149 502.898V506.307C355.036 506.278 354.775 506.236 354.368 506.179C353.97 506.113 353.549 506.08 353.104 506.08C352.043 506.08 351.096 506.302 350.263 506.747C349.439 507.183 348.786 507.789 348.303 508.565C347.829 509.332 347.592 510.208 347.592 511.193V525H344.24ZM367.607 525.455C365.504 525.455 363.691 524.991 362.166 524.062C360.651 523.125 359.482 521.818 358.658 520.142C357.843 518.456 357.436 516.496 357.436 514.261C357.436 512.027 357.843 510.057 358.658 508.352C359.482 506.638 360.627 505.303 362.095 504.347C363.572 503.381 365.296 502.898 367.266 502.898C368.402 502.898 369.524 503.087 370.632 503.466C371.74 503.845 372.749 504.46 373.658 505.312C374.567 506.155 375.291 507.273 375.831 508.665C376.371 510.057 376.641 511.771 376.641 513.807V515.227H359.822V512.33H373.232C373.232 511.098 372.985 510 372.493 509.034C372.01 508.068 371.319 507.306 370.419 506.747C369.529 506.188 368.478 505.909 367.266 505.909C365.93 505.909 364.775 506.241 363.8 506.903C362.834 507.557 362.09 508.409 361.57 509.46C361.049 510.511 360.788 511.638 360.788 512.841V514.773C360.788 516.42 361.072 517.817 361.641 518.963C362.218 520.099 363.018 520.966 364.041 521.562C365.064 522.15 366.252 522.443 367.607 522.443C368.487 522.443 369.283 522.32 369.993 522.074C370.713 521.818 371.333 521.439 371.854 520.938C372.375 520.426 372.777 519.792 373.061 519.034L376.3 519.943C375.959 521.042 375.386 522.008 374.581 522.841C373.776 523.665 372.782 524.309 371.598 524.773C370.414 525.227 369.084 525.455 367.607 525.455ZM381.74 525V503.182H384.979V506.477H385.206C385.604 505.398 386.323 504.522 387.365 503.849C388.407 503.177 389.581 502.841 390.888 502.841C391.134 502.841 391.442 502.846 391.811 502.855C392.18 502.865 392.46 502.879 392.649 502.898V506.307C392.536 506.278 392.275 506.236 391.868 506.179C391.47 506.113 391.049 506.08 390.604 506.08C389.543 506.08 388.596 506.302 387.763 506.747C386.939 507.183 386.286 507.789 385.803 508.565C385.329 509.332 385.092 510.208 385.092 511.193V525H381.74Z" fill="#8F72AB"/>
<path d="M767.523 538V508.909H785.08V512.034H771.045V521.864H784.17V524.989H771.045V534.875H785.307V538H767.523ZM774.739 505.955L778.205 499.364H782.125L777.693 505.955H774.739ZM799.838 538.455C797.793 538.455 796.031 537.972 794.554 537.006C793.077 536.04 791.94 534.709 791.145 533.014C790.349 531.319 789.952 529.383 789.952 527.205C789.952 524.989 790.359 523.033 791.173 521.338C791.997 519.634 793.143 518.303 794.611 517.347C796.088 516.381 797.812 515.898 799.781 515.898C801.315 515.898 802.698 516.182 803.929 516.75C805.16 517.318 806.169 518.114 806.955 519.136C807.741 520.159 808.228 521.352 808.418 522.716H805.065C804.81 521.722 804.241 520.841 803.361 520.074C802.49 519.297 801.315 518.909 799.838 518.909C798.531 518.909 797.385 519.25 796.401 519.932C795.425 520.604 794.663 521.556 794.114 522.787C793.574 524.009 793.304 525.443 793.304 527.091C793.304 528.777 793.569 530.244 794.099 531.494C794.639 532.744 795.397 533.715 796.372 534.406C797.357 535.098 798.512 535.443 799.838 535.443C800.709 535.443 801.5 535.292 802.21 534.989C802.92 534.686 803.522 534.25 804.014 533.682C804.507 533.114 804.857 532.432 805.065 531.636H808.418C808.228 532.924 807.759 534.084 807.011 535.116C806.273 536.139 805.293 536.954 804.071 537.56C802.859 538.156 801.448 538.455 799.838 538.455ZM816.67 524.875V538H813.318V508.909H816.67V519.591H816.955C817.466 518.464 818.233 517.569 819.256 516.906C820.288 516.234 821.661 515.898 823.375 515.898C824.862 515.898 826.164 516.196 827.281 516.793C828.399 517.38 829.265 518.284 829.881 519.506C830.506 520.718 830.818 522.261 830.818 524.136V538H827.466V524.364C827.466 522.631 827.016 521.291 826.116 520.344C825.226 519.387 823.991 518.909 822.409 518.909C821.311 518.909 820.326 519.141 819.455 519.605C818.593 520.069 817.911 520.746 817.409 521.636C816.917 522.527 816.67 523.606 816.67 524.875ZM843.371 538.511C841.989 538.511 840.734 538.251 839.607 537.73C838.48 537.2 837.585 536.438 836.923 535.443C836.26 534.439 835.928 533.227 835.928 531.807C835.928 530.557 836.174 529.544 836.667 528.767C837.159 527.981 837.817 527.366 838.641 526.92C839.465 526.475 840.374 526.144 841.369 525.926C842.372 525.699 843.381 525.519 844.394 525.386C845.72 525.216 846.795 525.088 847.619 525.003C848.452 524.908 849.058 524.752 849.437 524.534C849.825 524.316 850.019 523.937 850.019 523.398V523.284C850.019 521.883 849.636 520.794 848.869 520.017C848.111 519.241 846.96 518.852 845.417 518.852C843.817 518.852 842.562 519.203 841.653 519.903C840.744 520.604 840.104 521.352 839.735 522.148L836.553 521.011C837.121 519.686 837.879 518.653 838.826 517.915C839.782 517.167 840.824 516.646 841.951 516.352C843.087 516.049 844.205 515.898 845.303 515.898C846.004 515.898 846.809 515.983 847.718 516.153C848.637 516.314 849.522 516.651 850.374 517.162C851.236 517.673 851.951 518.445 852.519 519.477C853.087 520.509 853.371 521.892 853.371 523.625V538H850.019V535.045H849.849C849.621 535.519 849.243 536.026 848.712 536.565C848.182 537.105 847.477 537.564 846.596 537.943C845.715 538.322 844.64 538.511 843.371 538.511ZM843.883 535.5C845.209 535.5 846.326 535.24 847.235 534.719C848.154 534.198 848.845 533.526 849.309 532.702C849.782 531.878 850.019 531.011 850.019 530.102V527.034C849.877 527.205 849.565 527.361 849.082 527.503C848.608 527.635 848.059 527.754 847.434 527.858C846.818 527.953 846.217 528.038 845.63 528.114C845.052 528.18 844.584 528.237 844.224 528.284C843.353 528.398 842.538 528.582 841.781 528.838C841.032 529.084 840.426 529.458 839.962 529.96C839.508 530.453 839.281 531.125 839.281 531.977C839.281 533.142 839.711 534.023 840.573 534.619C841.444 535.206 842.548 535.5 843.883 535.5ZM862.842 524.875V538H859.49V516.182H862.729V519.591H863.013C863.524 518.483 864.301 517.593 865.342 516.92C866.384 516.239 867.729 515.898 869.376 515.898C870.854 515.898 872.146 516.201 873.254 516.807C874.362 517.403 875.224 518.312 875.839 519.534C876.455 520.746 876.763 522.28 876.763 524.136V538H873.411V524.364C873.411 522.65 872.965 521.314 872.075 520.358C871.185 519.392 869.964 518.909 868.411 518.909C867.34 518.909 866.384 519.141 865.541 519.605C864.708 520.069 864.05 520.746 863.567 521.636C863.084 522.527 862.842 523.606 862.842 524.875ZM891.695 546.636C890.076 546.636 888.684 546.428 887.519 546.011C886.354 545.604 885.384 545.064 884.607 544.392C883.84 543.729 883.229 543.019 882.775 542.261L885.445 540.386C885.748 540.784 886.132 541.239 886.596 541.75C887.06 542.271 887.694 542.721 888.499 543.099C889.314 543.488 890.379 543.682 891.695 543.682C893.457 543.682 894.91 543.256 896.056 542.403C897.202 541.551 897.775 540.216 897.775 538.398V533.966H897.491C897.245 534.364 896.894 534.856 896.44 535.443C895.995 536.021 895.351 536.537 894.508 536.991C893.674 537.437 892.548 537.659 891.127 537.659C889.366 537.659 887.784 537.242 886.383 536.409C884.991 535.576 883.888 534.364 883.073 532.773C882.268 531.182 881.866 529.25 881.866 526.977C881.866 524.742 882.259 522.796 883.045 521.139C883.831 519.473 884.924 518.185 886.326 517.276C887.728 516.357 889.347 515.898 891.184 515.898C892.604 515.898 893.731 516.134 894.565 516.608C895.407 517.072 896.051 517.602 896.496 518.199C896.951 518.786 897.301 519.269 897.548 519.648H897.888V516.182H901.127V538.625C901.127 540.5 900.701 542.025 899.849 543.199C899.006 544.383 897.87 545.249 896.44 545.798C895.019 546.357 893.438 546.636 891.695 546.636ZM891.582 534.648C892.926 534.648 894.063 534.34 894.991 533.724C895.919 533.109 896.624 532.223 897.107 531.068C897.59 529.913 897.832 528.53 897.832 526.92C897.832 525.348 897.595 523.961 897.121 522.759C896.648 521.556 895.947 520.614 895.019 519.932C894.091 519.25 892.945 518.909 891.582 518.909C890.161 518.909 888.978 519.269 888.031 519.989C887.093 520.708 886.388 521.674 885.914 522.886C885.45 524.098 885.218 525.443 885.218 526.92C885.218 528.436 885.455 529.776 885.928 530.94C886.411 532.096 887.121 533.005 888.059 533.668C889.006 534.321 890.18 534.648 891.582 534.648ZM916.411 538.455C914.309 538.455 912.496 537.991 910.971 537.062C909.456 536.125 908.286 534.818 907.462 533.142C906.648 531.456 906.241 529.496 906.241 527.261C906.241 525.027 906.648 523.057 907.462 521.352C908.286 519.638 909.432 518.303 910.9 517.347C912.377 516.381 914.101 515.898 916.07 515.898C917.207 515.898 918.329 516.087 919.437 516.466C920.545 516.845 921.553 517.46 922.462 518.312C923.371 519.155 924.096 520.273 924.636 521.665C925.175 523.057 925.445 524.771 925.445 526.807V528.227H908.627V525.33H922.036C922.036 524.098 921.79 523 921.298 522.034C920.815 521.068 920.123 520.306 919.224 519.747C918.334 519.188 917.282 518.909 916.07 518.909C914.735 518.909 913.58 519.241 912.604 519.903C911.638 520.557 910.895 521.409 910.374 522.46C909.853 523.511 909.593 524.638 909.593 525.841V527.773C909.593 529.42 909.877 530.817 910.445 531.963C911.023 533.099 911.823 533.966 912.846 534.562C913.869 535.15 915.057 535.443 916.411 535.443C917.292 535.443 918.087 535.32 918.798 535.074C919.517 534.818 920.138 534.439 920.658 533.938C921.179 533.426 921.582 532.792 921.866 532.034L925.104 532.943C924.763 534.042 924.191 535.008 923.386 535.841C922.581 536.665 921.586 537.309 920.403 537.773C919.219 538.227 917.888 538.455 916.411 538.455ZM930.545 538V516.182H933.783V519.477H934.011C934.408 518.398 935.128 517.522 936.17 516.849C937.211 516.177 938.386 515.841 939.692 515.841C939.939 515.841 940.246 515.846 940.616 515.855C940.985 515.865 941.264 515.879 941.454 515.898V519.307C941.34 519.278 941.08 519.236 940.673 519.179C940.275 519.113 939.853 519.08 939.408 519.08C938.348 519.08 937.401 519.302 936.567 519.747C935.744 520.183 935.09 520.789 934.607 521.565C934.134 522.332 933.897 523.208 933.897 524.193V538H930.545Z" fill="#DDBDE8"/>
</svg>
